<?xml version="1.0" encoding="utf-8"?>
<!-- Generator: Adobe Illustrator 16.0.3, SVG Export Plug-In . SVG Version: 6.00 Build 0)  -->
<!DOCTYPE svg PUBLIC "-//W3C//DTD SVG 1.1//EN" "http://www.w3.org/Graphics/SVG/1.1/DTD/svg11.dtd">
<svg version="1.1" id="Layer_1" xmlns="http://www.w3.org/2000/svg" xmlns:xlink="http://www.w3.org/1999/xlink" x="0px" y="0px"
	 width="500px" height="500px" viewBox="0 0 500 500" enable-background="new 0 0 500 500" xml:space="preserve">
<g>
	<path fill="#FEDD5C" d="M386.092,86.899c-17.118,11.915-6.297,36.889,1.396,52.732c-2.773-1.195-5.461-2.62-7.873-3.766
		c14.626,17.896,15.354,44.354,30.257,62.835c2.789,3.454,5.631,7.194,9.526,9.875c-4.223-1.261-8.694-3.498-11.412-6.199
		c5.274,10.776,12.915,20.854,21.859,29.31c-5.69-1.695-11.366-6.471-14.99-10.165l-0.097,0.098
		c-0.376-0.476,4.752,7.829,6.816,13.01c7.942,19.954,0.953,38.476,21.281,58.429c-6.1-1.346-11.49-8.221-15.283-13.01
		c-2.483,12.186,15.133,32.106,24.468,37.884l0.815,0.324c0.991-4.834,1.795-9.702,2.345-14.602
		c1.111-10.069,1.461-20.222,1.011-30.347c-0.406-10.124-1.477-20.228-3.208-30.218c-1.659-10.004-3.966-19.904-6.837-29.632
		c-1.42-4.871-2.993-9.696-4.729-14.463c-0.869-2.383-1.781-4.75-2.727-7.103c-0.935-2.358-1.917-4.696-2.939-7.02
		c-2.031-4.636-4.341-9.185-6.594-13.769c-2.268-4.571-4.61-9.106-7.028-13.599c-4.808-9.007-9.971-17.824-15.607-26.374
		c6.428,7.982,12.12,16.552,17.474,25.307c2.656,4.393,5.21,8.847,7.704,13.333c1.251,2.238,2.457,4.505,3.658,6.772
		c1.204,2.267,2.377,4.576,3.496,6.899c1.118,2.325,2.199,4.672,3.229,7.038c1.025,2.369,1.99,4.761,2.926,7.166
		c1.864,4.813,3.563,9.69,5.106,14.613c3.045,9.864,5.424,19.928,7.182,30.101c1.681,10.188,2.757,20.483,3.026,30.815
		c0.221,10.327-0.229,20.692-1.768,30.92c-0.763,5.112-1.722,10.199-3.014,15.204c-1.289,5.006-2.83,9.944-4.689,14.761
		c-2.42,6.229-5.359,12.27-8.86,17.934l0.048,0.006l-1.51,12.114c3.76-3.558,9.606-16.305,11.595-21.003
		c2.881-6.786,6.076-14.56,8.268-22.303l0.252,0.068c15.606-12.315,29.812-28.504,33.593-48.706l-0.316-0.061
		c-2.839,4.399-8.772,7.885-14.341,9.276c6.122-9.51,11.045-17.421,9.961-29.479c-1.325,5.544-5.639,10.049-10.945,11.408
		c11.964-25.235,5.975-55.295-6.111-79.281c-3.093-6.133-6.549-11.911-10.21-17.704c0.154,4.034-0.367,8.159-1.315,12.257
		c-2.378-15.406-9.61-29.778-16.955-43.412c1.041,5.681,0.915,10.91,0.348,16.37c-2.867-11.638-6.256-23.164-12.798-33.331
		C423.791,106.125,403.643,74.68,386.092,86.899z"/>
	<path fill="#2E3974" d="M93.208,113.689c11.452,17.431,36.706,7.281,52.749,0.014c-1.27,2.741-2.766,5.389-3.975,7.769
		c18.279-14.142,44.748-14.162,63.62-28.563c3.528-2.697,7.343-5.438,10.127-9.26c-1.374,4.187-3.729,8.598-6.502,11.241
		c10.913-4.984,21.192-12.352,29.885-21.067c-1.849,5.643-6.773,11.189-10.563,14.713l0.095,0.1
		c-0.483,0.364,7.955-4.542,13.189-6.467c20.157-7.405,38.487,0.077,58.977-19.71c-1.509,6.061-8.524,11.267-13.414,14.93
		c12.115,2.807,32.499-14.269,38.524-23.447l0.346-0.807c-4.805-1.12-9.65-2.052-14.534-2.734c-10.035-1.379-20.174-2-30.307-1.822
		c-10.131,0.136-20.261,0.935-30.295,2.4c-10.044,1.391-20.002,3.432-29.803,6.041c-4.907,1.29-9.772,2.732-14.584,4.341
		c-2.405,0.805-4.797,1.653-7.174,2.535c-2.382,0.871-4.746,1.79-7.096,2.751c-4.688,1.907-9.297,4.093-13.94,6.223
		c-4.629,2.145-9.225,4.365-13.781,6.662c-9.134,4.564-18.085,9.49-26.782,14.897c8.15-6.212,16.869-11.673,25.765-16.79
		c4.462-2.537,8.983-4.972,13.534-7.345c2.27-1.192,4.569-2.337,6.868-3.476c2.298-1.145,4.638-2.253,6.989-3.312
		c2.354-1.055,4.729-2.072,7.122-3.038c2.396-0.961,4.813-1.862,7.241-2.733c4.861-1.735,9.78-3.303,14.745-4.715
		c9.94-2.779,20.064-4.889,30.28-6.374c10.229-1.409,20.549-2.208,30.885-2.201c10.329,0.055,20.679,0.782,30.862,2.593
		c5.09,0.9,10.149,1.993,15.118,3.42c4.968,1.422,9.863,3.095,14.628,5.082c6.163,2.587,12.123,5.686,17.692,9.338l0.007-0.048
		l12.068,1.834c-3.454-3.854-16.042-10.04-20.685-12.153c-6.707-3.063-14.393-6.463-22.073-8.862l0.076-0.249
		C317.2,29.47,301.397,14.837,281.303,10.518l-0.069,0.313c4.322,2.957,7.648,8.981,8.89,14.586
		c-9.342-6.375-17.117-11.509-29.202-10.746c5.506,1.472,9.895,5.905,11.112,11.246c-24.907-12.636-55.116-7.452-79.417,3.988
		c-6.213,2.927-12.081,6.228-17.97,9.733c4.036-0.047,8.146,0.585,12.218,1.642c-15.464,1.966-30.024,8.811-43.851,15.788
		c5.707-0.888,10.931-0.622,16.373,0.09c-11.709,2.556-23.322,5.634-33.659,11.903C113.434,76.517,81.462,95.817,93.208,113.689z"/>
	<path fill="#008380" d="M102.912,424.525c17.984-10.563,9.118-36.296,2.667-52.684c2.674,1.404,5.243,3.033,7.56,4.36
		c-13.204-18.968-11.893-45.405-25.327-64.978c-2.516-3.658-5.062-7.605-8.738-10.579c4.113,1.583,8.398,4.157,10.9,7.06
		c-4.429-11.15-11.271-21.787-19.537-30.907c5.542,2.129,10.834,7.328,14.163,11.289l0.104-0.091
		c0.338,0.503-4.136-8.171-5.793-13.496c-6.383-20.505,2.011-38.435-16.719-59.894c5.976,1.811,10.822,9.081,14.235,14.147
		c3.413-11.958-12.615-33.176-21.479-39.655l-0.788-0.387c-1.359,4.743-2.535,9.535-3.462,14.378
		c-1.882,9.954-3.013,20.049-3.345,30.178c-0.374,10.125-0.085,20.281,0.874,30.375c0.883,10.102,2.42,20.149,4.533,30.07
		c1.041,4.965,2.238,9.896,3.602,14.784c0.683,2.442,1.41,4.873,2.171,7.291c0.75,2.423,1.55,4.83,2.391,7.225
		c1.669,4.78,3.622,9.492,5.514,14.236c1.907,4.732,3.896,9.435,5.96,14.101c4.101,9.35,8.569,18.538,13.532,27.498
		c-5.796-8.454-10.812-17.438-15.475-26.577c-2.31-4.586-4.513-9.224-6.655-13.886c-1.074-2.329-2.103-4.683-3.125-7.035
		c-1.027-2.354-2.017-4.746-2.955-7.148c-0.935-2.404-1.833-4.827-2.678-7.265c-0.838-2.441-1.617-4.9-2.363-7.37
		c-1.488-4.942-2.807-9.935-3.966-14.963c-2.277-10.068-3.876-20.285-4.845-30.563c-0.891-10.287-1.17-20.635-0.645-30.957
		c0.576-10.313,1.822-20.613,4.144-30.692c1.155-5.039,2.502-10.037,4.177-14.927c1.67-4.891,3.587-9.696,5.811-14.355
		c2.895-6.024,6.29-11.82,10.217-17.199l-0.048-0.009l2.438-11.962c-4.022,3.256-10.835,15.517-13.179,20.047
		c-3.396,6.544-7.179,14.048-9.961,21.6l-0.245-0.087c-16.508,11.077-31.917,26.124-37.242,45.975l0.31,0.085
		c3.168-4.168,9.354-7.187,15.013-8.146c-6.836,9.01-12.354,16.519-12.2,28.625c1.748-5.425,6.394-9.585,11.791-10.532
		c-13.871,24.24-10.216,54.671-0.013,79.517c2.611,6.353,5.613,12.379,8.817,18.438c0.155-4.034,0.994-8.106,2.255-12.12
		c1.185,15.544,7.288,30.43,13.562,44.59c-0.6-5.745-0.071-10.949,0.914-16.349c1.963,11.822,4.454,23.576,10.193,34.216
		C66.806,402.452,84.473,435.357,102.912,424.525z"/>
	<path fill="#F7921E" d="M416.962,388.089c-11.048-17.689-36.528-8.124-52.734-1.227c1.332-2.711,2.888-5.324,4.152-7.676
		c-18.6,13.718-45.063,13.131-64.26,27.095c-3.59,2.613-7.466,5.266-10.337,9.022c1.469-4.152,3.925-8.508,6.759-11.087
		c-11.025,4.731-21.473,11.861-30.361,20.374c1.977-5.599,7.028-11.029,10.896-14.466l-0.092-0.103
		c0.492-0.353-8.057,4.357-13.335,6.162c-20.321,6.94-38.475-0.96-59.413,18.35c1.647-6.023,8.781-11.067,13.754-14.616
		c-12.048-3.086-32.82,13.518-39.053,22.555l-0.365,0.798c4.778,1.229,9.602,2.273,14.468,3.067
		c10.001,1.61,20.123,2.463,30.257,2.518c10.132,0.098,20.276-0.468,30.342-1.703c10.073-1.158,20.075-2.971,29.934-5.354
		c4.935-1.178,9.833-2.508,14.68-4.006c2.424-0.748,4.834-1.541,7.23-2.369c2.401-0.815,4.785-1.681,7.157-2.586
		c4.73-1.798,9.389-3.879,14.078-5.901c4.679-2.037,9.324-4.151,13.933-6.343c9.235-4.354,18.299-9.073,27.117-14.277
		c-8.291,6.021-17.134,11.281-26.145,16.191c-4.519,2.436-9.095,4.765-13.698,7.032c-2.297,1.141-4.623,2.232-6.945,3.317
		c-2.325,1.092-4.689,2.146-7.064,3.15c-2.379,1.001-4.775,1.964-7.19,2.873c-2.416,0.906-4.854,1.752-7.301,2.566
		c-4.902,1.623-9.854,3.078-14.851,4.375c-10.002,2.549-20.171,4.426-30.419,5.677c-10.258,1.172-20.594,1.736-30.927,1.489
		c-10.325-0.293-20.656-1.256-30.794-3.301c-5.068-1.018-10.101-2.227-15.036-3.768c-4.936-1.535-9.791-3.32-14.507-5.416
		c-6.103-2.729-11.989-5.962-17.474-9.742l-0.008,0.049l-12.024-2.11c3.365,3.932,15.808,10.405,20.4,12.624
		c6.635,3.215,14.24,6.793,21.864,9.367l-0.081,0.247c11.524,16.2,26.986,31.191,46.977,35.972l0.076-0.311
		c-4.252-3.056-7.439-9.154-8.552-14.787c9.192,6.588,16.849,11.899,28.948,11.415c-5.472-1.599-9.757-6.131-10.852-11.499
		c24.611,13.205,54.932,8.717,79.486-2.162c6.28-2.784,12.222-5.949,18.19-9.318c-4.036-0.045-8.131-0.772-12.178-1.922
		c15.506-1.61,30.22-8.119,44.202-14.777c-5.726,0.758-10.942,0.371-16.366-0.465c11.765-2.285,23.445-5.098,33.925-11.126
		C395.887,424.786,428.295,406.225,416.962,388.089z"/>
</g>
</svg>
